<svg xmlns="http://www.w3.org/2000/svg" viewBox="0 0 1600 900">
  <defs>
    <linearGradient id="sky" x1="0" y1="0" x2="0" y2="1">
      <stop offset="0%" stop-color="#1b1b1b"/>
      <stop offset="100%" stop-color="#0f0f0f"/>
    </linearGradient>
    <linearGradient id="ground" x1="0" y1="0" x2="1" y2="1">
      <stop offset="0%" stop-color="#3a2f22"/>
      <stop offset="100%" stop-color="#1a1712"/>
    </linearGradient>
  </defs>
  <rect width="1600" height="900" fill="url(#sky)"/>
  <circle cx="1240" cy="180" r="120" fill="#f28c28" opacity="0.35"/>
  <rect y="560" width="1600" height="340" fill="url(#ground)"/>
  <path d="M0 620 250 540 480 590 760 490 990 550 1220 500 1600 600V900H0Z" fill="#2d241b"/>
  <g transform="translate(260 360)">
    <rect x="80" y="170" width="520" height="110" rx="18" fill="#f6c447"/>
    <polygon points="400,40 610,110 610,190 340,190 290,110" fill="#f28c28"/>
    <rect x="170" y="110" width="170" height="70" rx="10" fill="#171717"/>
    <rect x="90" y="80" width="220" height="25" rx="12" fill="#171717"/>
    <circle cx="180" cy="290" r="44" fill="#111111"/>
    <circle cx="500" cy="290" r="44" fill="#111111"/>
    <circle cx="180" cy="290" r="18" fill="#f28c28"/>
    <circle cx="500" cy="290" r="18" fill="#f28c28"/>
  </g>
  <g opacity="0.18" fill="#ffffff">
    <rect x="980" y="120" width="280" height="8" rx="4"/>
    <rect x="980" y="150" width="220" height="8" rx="4"/>
    <rect x="980" y="180" width="180" height="8" rx="4"/>
  </g>
</svg>
